<?xml version="1.0" encoding="utf-8"?>
<!-- Generator: Adobe Illustrator 27.7.0, SVG Export Plug-In . SVG Version: 6.00 Build 0)  -->
<svg xmlns="http://www.w3.org/2000/svg" xmlns:xlink="http://www.w3.org/1999/xlink" version="1.2" viewBox="0 0 1100 530" style="enable-background:new 0 0 1100 530;" xml:space="preserve" baseProfile="tiny-ps">
<style>
	.st0{fill:#003764;}
	.st1{fill:#C52630;}
	.st2{fill:#FFFFFF;}
	.st3{fill:#849DAA;}
</style>
<g id="Layer_2">
</g>
<g id="logo_cross">
	<g>
		<g>
			<g>
				<g>
					<path d="M100,459.7v-44.5l8.2-8.2h22.4l8.2,8.2v44.5l-8.2,8.2h-22.4L100,459.7z M123,455l2.2-2.1V422l-2.2-2.1h-7.2l-2.2,2.1       v30.9l2.2,2.1H123z"/>
					<path d="M146.5,459.7V407h13.6v45.9l2.2,2.1h7.2l2.2-2.1V407h13.6v52.7l-8.2,8.2h-22.4L146.5,459.7z"/>
					<path d="M192.9,407h30.3l8.2,8.2v23.2l-7.2,7.2l10.7,22.2h-14.2l-10.2-21.6h-3.9l0.1,21.6H193L192.9,407z M215.6,435l2.2-2.2       V422l-2.2-2.1h-9.1V435H215.6z"/>
					<path d="M259.3,459.7v-44.5l8.2-8.2h22.4l8.2,8.2v13.6h-13.6V422l-2.2-2.1h-7.2l-2.2,2.1v30.9l2.2,2.1h7.2l2.2-2.1v-6.8h13.6       v13.6l-8.2,8.2h-22.4L259.3,459.7z"/>
					<path d="M305.7,459.7v-44.5l8.2-8.2h22.4l8.2,8.2v44.5l-8.2,8.2H314L305.7,459.7z M328.7,455l2.2-2.1V422l-2.2-2.1h-7.2       l-2.2,2.1v30.9l2.2,2.1H328.7z"/>
					<path d="M352.2,459.7V407h13.6v45.9l2.2,2.1h7.2l2.2-2.1V407H391v52.7l-8.2,8.2h-22.4L352.2,459.7z"/>
					<path d="M398.7,407H412l11.9,26.7V407h13.6v60.9h-11.7l-13.5-28.9v28.9h-13.7V407z"/>
					<path d="M456.2,419.9h-12.6V407h38.8v12.9h-12.6v48.1h-13.6V419.9z"/>
					<path d="M488.5,407h30.3l8.2,8.2v23.2l-7.2,7.2l10.7,22.2h-14.2l-10.2-21.6h-3.9l0.1,21.6h-13.6L488.5,407z M511.2,435l2.2-2.2       V422l-2.2-2.1h-9.1V435H511.2z"/>
					<path d="M544.8,444.4L530.5,407h14.3l6.8,20.3l6.8-20.3h14.4l-14.3,37.4v23.5h-13.6V444.4z"/>
					<path d="M597.1,459.7v-44.5l8.2-8.2h22.4l8.2,8.2v44.5l-8.2,8.2h-22.4L597.1,459.7z M620.2,455l2.2-2.1V422l-2.2-2.1H613       l-2.2,2.1v30.9l2.2,2.1H620.2z"/>
					<path d="M643.6,459.7V407h13.6v45.9l2.2,2.1h7.2l2.2-2.1V407h13.6v52.7l-8.2,8.2h-22.4L643.6,459.7z"/>
					<path d="M690.1,407h30.3l8.2,8.2v23.2l-7.2,7.2l10.7,22.2h-14.2l-10.2-21.6h-3.9l0.1,21.6h-13.6L690.1,407z M712.8,435l2.2-2.2       V422l-2.2-2.1h-9.1V435H712.8z"/>
					<path d="M756.4,459.7v-44.5l8.2-8.2H787l8.2,8.2v13.6h-13.6V422l-2.2-2.1h-7.2L770,422v30.9l2.2,2.1h7.2l2.2-2.1v-6.8h13.6       v13.6l-8.2,8.2h-22.4L756.4,459.7z"/>
					<path d="M802.1,407h13.6v24h11.5v-24H841v60.9h-13.7v-24l-11.5,0.1v23.9h-13.6V407z"/>
					<path d="M847.7,459.7v-44.5l8.2-8.2h22.4l8.2,8.2v44.5l-8.2,8.2H856L847.7,459.7z M870.7,455l2.2-2.1V422l-2.2-2.1h-7.2       l-2.2,2.1v30.9l2.2,2.1H870.7z"/>
					<path d="M894.2,407h13.6v60.9h-13.6V407z"/>
					<path d="M915.5,459.7v-44.5l8.2-8.2h22.4l8.2,8.2v13.6h-13.6V422l-2.2-2.1h-7.2l-2.2,2.1v30.9l2.2,2.1h7.2l2.2-2.1v-6.8h13.6       v13.6l-8.2,8.2h-22.4L915.5,459.7z"/>
					<path d="M961.9,407h38.1v12.9h-24.5v11H997v12.9h-21.5V455h24.5v12.9h-38.1V407z"/>
				</g>
			</g>
			<g>
				<path class="st1" d="M460,225.8L369.4,160l-5.3-3.8c-12.6-9.1-27.7-14-43.2-14H175.3l252.4,183.4L460,225.8z"/>
				<path class="st1" d="M779,142.1c-15.5,0-30.6,4.9-43.2,14l-5.3,3.8L627,235.2L484,339.1h169.6l271.1-197H779z"/>
				<polygon class="st1" points="819.2,273.4 849.6,251.3 812.1,251.3 781.7,273.4     "/>
				<polygon class="st0" points="751.3,295.4 691.2,339.1 728.7,339.1 788.9,295.4     "/>
				<g>
					<polygon class="st1" points="826.4,295.4 766.3,339.1 803.8,339.1 864,295.4      "/>
					<polygon class="st1" points="894.3,273.4 924.7,251.3 887.2,251.3 856.8,273.4      "/>
				</g>
				<path class="st0" d="M580.2,113.4l15.5-11.3h21.2c0,0,0.6,3.7-0.6,8.3c10.9-9.5,9.6-25.4-2.8-30.4c-3.5-1.4-10.1-1.4-13.3-1.4      c-1,0-3.5,0-4.5,0l-9.5-10.2c-3.8-4.1-9.1-6.4-14.7-6.4h-20.6c-8.8,0-16.5,5.7-19.2,14l-21.2,66h-128L486,217.4l-39.6,121.8      L550,263.9l64-46.5l103.6-75.2h-128L580.2,113.4z"/>
			</g>
		</g>
	</g>
</g>
<title>Title</title></svg>
